<?xml version="1.0" encoding="utf-8"?>
<!-- Generator: Adobe Illustrator 25.2.1, SVG Export Plug-In . SVG Version: 6.00 Build 0)  -->
<svg version="1.1" id="Layer_1" xmlns="http://www.w3.org/2000/svg" xmlns:xlink="http://www.w3.org/1999/xlink" x="0px" y="0px"
	 viewBox="0 0 500 500" style="enable-background:new 0 0 500 500;" xml:space="preserve">
<style type="text/css">
	.st0{fill:#F2CA59;}
</style>
<g id="Logo">
	<path class="st0" d="M242.9,304.9l13,11.1l-3.4,3.9l-8.9-7.6l-4,4.7l7.7,6.6l-3.4,3.9l-7.7-6.6l-7,8.1l-4.1-3.5L242.9,304.9z"/>
	<path class="st0" d="M260.7,318.5l4.7,2.6L252.4,345l-4.7-2.6L260.7,318.5z"/>
	<path class="st0" d="M288.2,358.1L272.6,335l1.3,1.2l-3.9,16.2l-5.3-1.3l6.8-27.5l0.2,0.1l15.2,22.9l-1-0.8l4-16.5l5.3,1.3
		l-6.8,27.5L288.2,358.1z"/>
	<path class="st0" d="M303.9,357.9l-2.6-27.1l8.1-0.8c2.4-0.3,4.8-0.1,7.1,0.5c1.8,0.5,3.5,1.5,4.9,2.8c1.3,1.2,2.3,2.7,3,4.3
		c0.7,1.6,1.1,3.3,1.3,5c0.2,1.9,0,3.8-0.6,5.5c-0.5,1.6-1.4,3.1-2.6,4.4c-1.2,1.3-2.6,2.3-4.1,3c-1.6,0.8-3.4,1.2-5.1,1.4
		L303.9,357.9z M308.7,352.2l3.2-0.3c1.2-0.1,2.5-0.4,3.6-0.9c1-0.4,1.9-1.1,2.7-1.9c0.7-0.8,1.3-1.7,1.6-2.8
		c0.3-1.2,0.4-2.4,0.3-3.7c-0.1-1.5-0.5-3-1.3-4.2c-0.6-1-1.4-1.8-2.4-2.4c-0.8-0.5-1.8-0.8-2.7-1c-0.8-0.1-1.5-0.2-2.3-0.1
		l-4.4,0.4L308.7,352.2z"/>
	<path class="st0" d="M328.8,326.9l17.1-7.3l2,4.8l-12.2,5.2l2.3,5.4l10.8-4.6l2,4.8l-10.8,4.6l2.3,5.4l12.7-5.4l2,4.8l-17.5,7.5
		L328.8,326.9z"/>
	<path class="st0" d="M357,311.3c1.2-1,2.5-1.8,3.9-2.4c1.2-0.5,2.5-0.7,3.8-0.7c1.2,0,2.4,0.4,3.4,0.9c1.2,0.6,2.2,1.5,3,2.5
		c0.7,0.9,1.3,1.8,1.7,2.9c0.5,1.1,0.7,2.2,0.7,3.4c0,1.3-0.3,2.5-0.9,3.6c-0.7,1.4-1.8,2.6-3,3.6l-3,2.5l5.5,6.7l-4.1,3.4l-17.4-21
		L357,311.3z M366.2,321.1c0.6-0.4,1-1,1.3-1.6c0.2-0.5,0.3-1.1,0.3-1.6c0-0.5-0.1-1-0.3-1.4c-0.2-0.4-0.4-0.8-0.7-1.1
		c-0.2-0.3-0.5-0.6-0.8-0.8c-0.4-0.3-0.8-0.6-1.3-0.7c-0.5-0.2-1.1-0.2-1.7-0.1c-0.7,0.2-1.4,0.5-2,1l-3,2.5l5.2,6.3L366.2,321.1z
		 M372.2,320.4l11.9,3.8l-4.8,4l-11.9-3.6L372.2,320.4z"/>
	<path class="st0" d="M303.8,311c-39.4,0-71.3-31.9-71.3-71.3c0-39.4,31.9-71.3,71.3-71.3c39.4,0,71.3,31.9,71.3,71.3
		C375,279,343.1,311,303.8,311z M303.8,188.3c-28.4,0-51.4,23-51.4,51.4c0,28.4,23,51.4,51.4,51.4c28.4,0,51.4-23,51.4-51.4
		c0,0,0,0,0,0C355.1,211.3,332.1,188.3,303.8,188.3L303.8,188.3z"/>
	<path class="st0" d="M112.5,155.1l17-6.9l1.9,4.8l-6.2,2.5l8.3,20.5l-5,2l-8.2-20.5l-5.9,2.4L112.5,155.1z"/>
	<path class="st0" d="M165,145.1l0.4,27.3l-5.4,0.1l-0.2-11.1l-12.2,0.2l0.2,11.1l-5.4,0.1l-0.4-27.3l5.4-0.1l0.2,11l12.2-0.2
		l-0.2-11L165,145.1z"/>
	<path class="st0" d="M180.8,148.9l17.1,7.3l-2,4.8l-12.2-5.2l-2.3,5.4l10.8,4.6l-2,4.8l-10.8-4.6l-2.3,5.4l12.6,5.4l-2,4.8
		l-17.7-7.5L180.8,148.9z"/>
	<path class="st0" d="M154.1,290.1c-27.9,0-50.5-22.6-50.5-50.5s22.6-50.5,50.5-50.5c27.9,0,50.5,22.6,50.5,50.5c0,0,0,0,0,0
		C204.6,267.5,182,290.1,154.1,290.1z M154.1,209.1c-16.9,0-30.6,13.7-30.6,30.6c0,16.9,13.7,30.6,30.6,30.6s30.6-13.7,30.6-30.6
		c0,0,0,0,0,0C184.7,222.8,171,209.1,154.1,209.1L154.1,209.1z"/>
	<g id="d">
		<path class="st0" d="M449.5,290.1c-27.9,0-50.5-22.6-50.5-50.5s22.6-50.5,50.5-50.5c27.9,0,50.5,22.6,50.5,50.5c0,0,0,0,0,0
			C500,267.5,477.4,290.1,449.5,290.1z M449.5,209.1c-16.9,0-30.6,13.7-30.6,30.5s13.7,30.6,30.5,30.6s30.6-13.7,30.6-30.5
			c0,0,0,0,0,0C480,222.8,466.4,209.1,449.5,209.1L449.5,209.1z"/>
		<rect x="480" y="149.4" class="st0" width="20" height="137.8"/>
	</g>
	<g id="f">
		<path class="st0" d="M38.1,337.4H18.2V178.4c-0.6-20,5.9-35.9,18.9-46c15.6-12.1,40.8-11.2,53.9,2l-14.1,14.1
			c-6-6.1-20-6.2-27.6-0.3c-9.8,7.6-11.5,20.4-11.2,29.7L38.1,337.4L38.1,337.4z"/>
		<rect y="229.7" class="st0" width="76.8" height="19.9"/>
	</g>
	<path class="st0" d="M235.1,161.5c-0.6,0-1.1-0.2-1.5-0.6c-33.7-33.9-85.1-42.8-128.2-22c-1,0.6-2.3,0.3-2.9-0.7
		c-0.6-1-0.3-2.3,0.7-2.9c0.1-0.1,0.3-0.1,0.4-0.2c44.7-21.5,98.1-12.4,133,22.9c0.8,0.8,0.8,2.2,0,3
		C236.2,161.3,235.7,161.5,235.1,161.5L235.1,161.5z"/>
	<path class="st0" d="M303.7,378.2c-38.2,0.1-74.7-15.6-100.7-43.5c-0.8-0.8-0.8-2.2,0-3s2.2-0.8,3,0c0,0,0,0,0,0
		c25.3,27,60.7,42.3,97.7,42.1c48.5-0.1,93.1-26.1,117-68.3c0.6-1,1.9-1.4,2.9-0.8c1,0.6,1.4,1.9,0.8,2.9l0,0
		C399.9,351.2,353.7,378.2,303.7,378.2z"/>
</g>
</svg>
